<svg xmlns="http://www.w3.org/2000/svg" xmlns:xlink="http://www.w3.org/1999/xlink" width="500" zoomAndPan="magnify" viewBox="0 0 375 374.999991" height="500" preserveAspectRatio="xMidYMid meet" version="1.0"><defs><g/><clipPath id="id1"><path d="M 135 98 L 239.996094 98 L 239.996094 216 L 135 216 Z M 135 98 " clip-rule="nonzero"/></clipPath><clipPath id="id2"><path d="M 156.265625 126 L 218.515625 126 L 218.515625 188.144531 L 156.265625 188.144531 Z M 156.265625 126 " clip-rule="nonzero"/></clipPath><clipPath id="id3"><path d="M 207 132 L 218.515625 132 L 218.515625 158 L 207 158 Z M 207 132 " clip-rule="nonzero"/></clipPath><clipPath id="id4"><path d="M 184 157 L 208 157 L 208 188.144531 L 184 188.144531 Z M 184 157 " clip-rule="nonzero"/></clipPath></defs><rect x="-37.5" width="450" fill="rgb(100%, 100%, 100%)" y="-37.499999" height="449.999989" fill-opacity="1"/><rect x="-37.5" width="450" fill="rgb(100%, 100%, 100%)" y="-37.499999" height="449.999989" fill-opacity="1"/><rect x="-37.5" width="450" fill="rgb(100%, 100%, 100%)" y="-37.499999" height="449.999989" fill-opacity="1"/><rect x="-37.5" width="450" fill="rgb(100%, 100%, 100%)" y="-37.499999" height="449.999989" fill-opacity="1"/><g clip-path="url(#id1)"><path fill="rgb(0%, 0%, 0%)" d="M 239.878906 134.085938 L 239.878906 180.183594 C 239.878906 181.273438 239.734375 182.347656 239.453125 183.402344 C 239.171875 184.457031 238.757812 185.460938 238.214844 186.40625 C 237.667969 187.351562 237.011719 188.214844 236.242188 188.988281 C 235.472656 189.761719 234.617188 190.425781 233.675781 190.976562 L 193.765625 214.011719 C 192.8125 214.558594 191.808594 214.972656 190.75 215.257812 C 189.691406 215.539062 188.609375 215.683594 187.515625 215.683594 C 186.417969 215.683594 185.339844 215.539062 184.28125 215.257812 C 183.21875 214.972656 182.214844 214.558594 181.265625 214.011719 L 141.375 190.976562 C 140.425781 190.433594 139.558594 189.773438 138.785156 189 C 138.007812 188.230469 137.34375 187.367188 136.792969 186.421875 C 136.242188 185.472656 135.824219 184.46875 135.539062 183.414062 C 135.253906 182.355469 135.109375 181.277344 135.109375 180.183594 L 135.109375 134.085938 C 135.109375 132.992188 135.253906 131.914062 135.539062 130.855469 C 135.824219 129.796875 136.242188 128.792969 136.792969 127.847656 C 137.339844 126.898438 138.003906 126.039062 138.78125 125.265625 C 139.558594 124.492188 140.421875 123.832031 141.375 123.289062 L 181.28125 100.234375 C 182.230469 99.6875 183.238281 99.277344 184.296875 98.996094 C 185.355469 98.714844 186.433594 98.574219 187.53125 98.574219 C 188.625 98.574219 189.703125 98.714844 190.761719 98.996094 C 191.824219 99.277344 192.828125 99.6875 193.78125 100.234375 L 233.691406 123.296875 C 234.632812 123.847656 235.488281 124.511719 236.253906 125.285156 C 237.023438 126.0625 237.679688 126.921875 238.222656 127.867188 C 238.765625 128.816406 239.175781 129.816406 239.457031 130.871094 C 239.738281 131.925781 239.878906 132.996094 239.878906 134.085938 Z M 239.878906 134.085938 " fill-opacity="1" fill-rule="nonzero"/></g><g clip-path="url(#id2)"><path fill="rgb(100%, 100%, 100%)" d="M 157.808594 188.1875 C 157.476562 188.1875 157.148438 188.0625 156.898438 187.8125 C 156.414062 187.328125 156.390625 186.546875 156.851562 186.039062 L 209.429688 128.003906 C 211.476562 125.953125 214.738281 125.949219 216.75 127.957031 C 217.722656 128.929688 218.257812 130.222656 218.257812 131.597656 C 218.257812 132.96875 217.722656 134.261719 216.75 135.234375 L 158.671875 187.851562 C 158.425781 188.078125 158.117188 188.1875 157.808594 188.1875 Z M 213.113281 129.023438 C 212.425781 129.023438 211.78125 129.292969 211.292969 129.777344 L 176.261719 168.445312 L 214.976562 133.371094 C 215.417969 132.929688 215.683594 132.285156 215.683594 131.597656 C 215.683594 130.910156 215.417969 130.265625 214.929688 129.777344 C 214.445312 129.292969 213.796875 129.023438 213.113281 129.023438 Z M 213.113281 129.023438 " fill-opacity="1" fill-rule="nonzero"/></g><path fill="rgb(100%, 100%, 100%)" d="M 209.253906 136.742188 C 208.925781 136.742188 208.59375 136.613281 208.34375 136.367188 C 207.839844 135.863281 207.839844 135.046875 208.34375 134.546875 L 210.914062 131.976562 C 211.417969 131.472656 212.230469 131.472656 212.734375 131.976562 C 213.234375 132.476562 213.234375 133.292969 212.734375 133.792969 L 210.160156 136.367188 C 209.910156 136.613281 209.582031 136.742188 209.253906 136.742188 Z M 209.253906 136.742188 " fill-opacity="1" fill-rule="nonzero"/><path fill="rgb(100%, 100%, 100%)" d="M 184.816406 156.035156 C 184.550781 156.035156 184.28125 155.953125 184.050781 155.78125 C 183.664062 155.492188 174.527344 148.644531 174.527344 139.3125 C 174.527344 131.136719 179.683594 126.453125 188.675781 126.453125 C 194.570312 126.453125 200.910156 126.9375 207.304688 130.472656 C 207.921875 130.816406 208.148438 131.597656 207.804688 132.21875 C 207.464844 132.839844 206.679688 133.066406 206.054688 132.722656 C 200.171875 129.472656 194.222656 129.027344 188.671875 129.027344 C 183.390625 129.027344 177.097656 130.8125 177.097656 139.316406 C 177.097656 147.363281 185.492188 153.652344 185.578125 153.714844 C 186.152344 154.136719 186.273438 154.941406 185.847656 155.515625 C 185.601562 155.851562 185.210938 156.035156 184.816406 156.035156 Z M 184.816406 156.035156 " fill-opacity="1" fill-rule="nonzero"/><g clip-path="url(#id3)"><path fill="rgb(100%, 100%, 100%)" d="M 209.25 157.320312 C 208.609375 157.320312 208.050781 156.835938 207.976562 156.183594 C 207.894531 155.476562 208.398438 154.839844 209.105469 154.757812 C 213.472656 154.25 215.683594 151.214844 215.683594 145.746094 C 215.683594 142.769531 213.535156 138.980469 209.628906 135.078125 C 209.128906 134.578125 209.128906 133.761719 209.628906 133.261719 C 210.128906 132.757812 210.945312 132.757812 211.449219 133.261719 C 215.902344 137.714844 218.257812 142.03125 218.257812 145.746094 C 218.257812 152.539062 215.109375 156.648438 209.402344 157.3125 C 209.351562 157.316406 209.300781 157.320312 209.25 157.320312 Z M 209.25 157.320312 " fill-opacity="1" fill-rule="nonzero"/></g><g clip-path="url(#id4)"><path fill="rgb(100%, 100%, 100%)" d="M 186.101562 188.1875 C 185.394531 188.1875 184.816406 187.609375 184.816406 186.902344 C 184.816406 186.191406 185.394531 185.613281 186.101562 185.613281 C 200.324219 185.613281 205.394531 179.632812 205.394531 174.039062 C 205.394531 169.9375 198.402344 165.53125 193.292969 162.316406 C 191.765625 161.351562 190.347656 160.460938 189.210938 159.648438 C 188.632812 159.238281 188.503906 158.433594 188.914062 157.855469 C 189.328125 157.277344 190.132812 157.148438 190.710938 157.558594 C 191.808594 158.34375 193.183594 159.207031 194.664062 160.140625 C 200.59375 163.875 207.96875 168.515625 207.96875 174.039062 C 207.96875 180.566406 202.238281 188.1875 186.101562 188.1875 Z M 186.101562 188.1875 " fill-opacity="1" fill-rule="nonzero"/></g><g fill="rgb(0%, 0%, 0%)" fill-opacity="1"><g transform="translate(116.148176, 254.599524)"><g><path d="M 6.320312 -3.507812 L 6.320312 -23.125 L 2.542969 -23.125 L 2.542969 0 L 14.453125 0 L 14.453125 -3.507812 Z M 6.320312 -3.507812 "/></g></g></g><g fill="rgb(0%, 0%, 0%)" fill-opacity="1"><g transform="translate(132.581964, 254.599524)"><g><path d="M 16.574219 0 L 20.65625 0 L 12.292969 -23.125 L 8.09375 -23.125 L -0.269531 0 L 3.816406 0 L 5.472656 -4.894531 L 14.914062 -4.894531 Z M 6.589844 -8.210938 L 10.214844 -19 L 13.835938 -8.210938 Z M 6.589844 -8.210938 "/></g></g></g><g fill="rgb(0%, 0%, 0%)" fill-opacity="1"><g transform="translate(154.758238, 254.599524)"><g><path d="M 16.648438 0 L 21.777344 0 L 10.753906 -12.640625 L 21.003906 -23.125 L 16.03125 -23.125 L 7.632812 -14.296875 L 6.320312 -14.296875 L 6.320312 -23.125 L 2.542969 -23.125 L 2.542969 0 L 6.320312 0 L 6.320312 -10.90625 L 7.554688 -10.90625 Z M 16.648438 0 "/></g></g></g><g fill="rgb(0%, 0%, 0%)" fill-opacity="1"><g transform="translate(177.782393, 254.599524)"><g><path d="M 8.980469 0.308594 C 13.140625 0.308594 16.535156 -2.160156 16.535156 -6.320312 C 16.535156 -14.53125 5.589844 -12.527344 5.589844 -17.265625 C 5.589844 -19.078125 7.015625 -19.925781 8.710938 -19.925781 C 10.25 -19.925781 11.640625 -19.230469 12.679688 -17.921875 L 15.339844 -20.347656 C 13.875 -22.160156 11.445312 -23.433594 8.710938 -23.433594 C 5.085938 -23.433594 1.8125 -21.160156 1.8125 -16.996094 C 1.8125 -9.328125 12.757812 -11.214844 12.757812 -6.320312 C 12.757812 -4.433594 11.175781 -3.316406 9.019531 -3.316406 C 6.667969 -3.316406 4.894531 -4.625 4.085938 -6.589844 L 0.847656 -4.625 C 2.195312 -1.734375 5.28125 0.308594 8.980469 0.308594 Z M 8.980469 0.308594 "/></g></g></g><g fill="rgb(0%, 0%, 0%)" fill-opacity="1"><g transform="translate(197.068153, 254.599524)"><g><path d="M 16.574219 0 L 20.65625 0 L 12.292969 -23.125 L 8.09375 -23.125 L -0.269531 0 L 3.816406 0 L 5.472656 -4.894531 L 14.914062 -4.894531 Z M 6.589844 -8.210938 L 10.214844 -19 L 13.835938 -8.210938 Z M 6.589844 -8.210938 "/></g></g></g><g fill="rgb(0%, 0%, 0%)" fill-opacity="1"><g transform="translate(219.244421, 254.599524)"><g><path d="M 6.320312 -3.507812 L 6.320312 -23.125 L 2.542969 -23.125 L 2.542969 0 L 14.453125 0 L 14.453125 -3.507812 Z M 6.320312 -3.507812 "/></g></g></g><g fill="rgb(0%, 0%, 0%)" fill-opacity="1"><g transform="translate(235.678204, 254.599524)"><g><path d="M 11.5625 0.308594 C 16.804688 0.308594 20.734375 -3.042969 20.734375 -7.515625 L 20.734375 -23.125 L 16.957031 -23.125 L 16.957031 -8.171875 C 16.957031 -5.320312 14.644531 -3.199219 11.5625 -3.199219 C 8.480469 -3.199219 6.203125 -5.320312 6.203125 -8.171875 L 6.203125 -23.125 L 2.429688 -23.125 L 2.429688 -7.515625 C 2.429688 -3.042969 6.320312 0.308594 11.5625 0.308594 Z M 11.5625 0.308594 "/></g></g></g><g fill="rgb(0%, 0%, 0%)" fill-opacity="1"><g transform="translate(139.588487, 274.093458)"><g><path d="M 7.277344 -9.152344 L 7.277344 -4.941406 L 1.921875 -4.941406 L 1.921875 -9.152344 L 1.191406 -9.152344 L 1.191406 0 L 1.921875 0 L 1.921875 -4.210938 L 7.277344 -4.210938 L 7.277344 0 L 8.007812 0 L 8.007812 -9.152344 Z M 7.277344 -9.152344 "/></g></g></g><g fill="rgb(0%, 0%, 0%)" fill-opacity="1"><g transform="translate(151.847144, 274.093458)"><g><path d="M 6.710938 0 L 7.503906 0 L 4.195312 -9.152344 L 3.386719 -9.152344 L 0.078125 0 L 0.882812 0 L 1.664062 -2.210938 L 5.933594 -2.210938 Z M 1.90625 -2.914062 L 3.796875 -8.28125 L 5.6875 -2.914062 Z M 1.90625 -2.914062 "/></g></g></g><g fill="rgb(0%, 0%, 0%)" fill-opacity="1"><g transform="translate(162.489403, 274.093458)"><g><path d="M 7.75 -9.152344 L 7.75 -1.296875 L 1.832031 -9.152344 L 1.191406 -9.152344 L 1.191406 0 L 1.921875 0 L 1.921875 -7.855469 L 7.839844 0 L 8.480469 0 L 8.480469 -9.152344 Z M 7.75 -9.152344 "/></g></g></g><g fill="rgb(0%, 0%, 0%)" fill-opacity="1"><g transform="translate(175.22078, 274.093458)"><g><path d="M 1.191406 0 L 3.570312 0 C 6.101562 0 8.144531 -2.042969 8.144531 -4.574219 C 8.144531 -7.109375 6.101562 -9.152344 3.570312 -9.152344 L 1.191406 -9.152344 Z M 1.921875 -0.730469 L 1.921875 -8.417969 L 3.554688 -8.417969 C 5.703125 -8.417969 7.414062 -6.757812 7.414062 -4.574219 C 7.414062 -2.394531 5.703125 -0.730469 3.554688 -0.730469 Z M 1.921875 -0.730469 "/></g></g></g><g fill="rgb(0%, 0%, 0%)" fill-opacity="1"><g transform="translate(187.265949, 274.093458)"><g><path d="M 1.921875 -0.730469 L 1.921875 -9.152344 L 1.191406 -9.152344 L 1.191406 0 L 5.414062 0 L 5.414062 -0.730469 Z M 1.921875 -0.730469 "/></g></g></g><g fill="rgb(0%, 0%, 0%)" fill-opacity="1"><g transform="translate(195.910575, 274.093458)"><g><path d="M 5.535156 0.121094 C 8.128906 0.121094 10.234375 -1.984375 10.234375 -4.574219 C 10.234375 -7.167969 8.128906 -9.273438 5.535156 -9.273438 C 2.945312 -9.273438 0.839844 -7.167969 0.839844 -4.574219 C 0.839844 -1.984375 2.945312 0.121094 5.535156 0.121094 Z M 5.535156 -0.609375 C 3.339844 -0.609375 1.570312 -2.378906 1.570312 -4.574219 C 1.570312 -6.773438 3.339844 -8.542969 5.535156 -8.542969 C 7.734375 -8.542969 9.503906 -6.773438 9.503906 -4.574219 C 9.503906 -2.378906 7.734375 -0.609375 5.535156 -0.609375 Z M 5.535156 -0.609375 "/></g></g></g><g fill="rgb(0%, 0%, 0%)" fill-opacity="1"><g transform="translate(210.044874, 274.093458)"><g><path d="M 5.535156 0.121094 C 8.128906 0.121094 10.234375 -1.984375 10.234375 -4.574219 C 10.234375 -7.167969 8.128906 -9.273438 5.535156 -9.273438 C 2.945312 -9.273438 0.839844 -7.167969 0.839844 -4.574219 C 0.839844 -1.984375 2.945312 0.121094 5.535156 0.121094 Z M 5.535156 -0.609375 C 3.339844 -0.609375 1.570312 -2.378906 1.570312 -4.574219 C 1.570312 -6.773438 3.339844 -8.542969 5.535156 -8.542969 C 7.734375 -8.542969 9.503906 -6.773438 9.503906 -4.574219 C 9.503906 -2.378906 7.734375 -0.609375 5.535156 -0.609375 Z M 5.535156 -0.609375 "/></g></g></g><g fill="rgb(0%, 0%, 0%)" fill-opacity="1"><g transform="translate(224.179174, 274.093458)"><g><path d="M 9.289062 -9.152344 L 5.613281 -0.871094 L 1.953125 -9.152344 L 1.191406 -9.152344 L 1.191406 0 L 1.921875 0 L 1.921875 -7.65625 L 5.308594 0 L 5.902344 0 L 9.320312 -7.6875 L 9.320312 0 L 10.035156 0 L 10.035156 -9.152344 Z M 9.289062 -9.152344 "/></g></g></g></svg>